STARTFONT 2.1
COMMENT Copyright (C) 1990-1991 EWT Consulting
COMMENT Portions Copyright (C) 1994-1995 Cronyx Ltd.
COMMENT Modified by Serge Vakulenko, <vak@cronyx.ru>
COMMENT Encoding changed to CP1251 by Rabinovich Moisei, <moisei@cs.bgu.ac.il>,$
COMMENT This software may be used, modified, copied, distributed, and sold,
COMMENT in both source and binary form provided that the copyright
COMMENT and these terms are retained. Under no circumstances is the author
COMMENT responsible for the proper functioning of this software, nor does
COMMENT the author assume any responsibility for damages incurred with its use.
FONT -Cronyx-Helvetica-Bold-R-Normal--14-140-75-75-P-77-RAWIN-R
SIZE 14 96 96
FONTBOUNDINGBOX 20 24 0 -5
STARTPROPERTIES 19
DEFAULT_CHAR 32
FONT_ASCENT 19
FONT_DESCENT 5
SPACING "P"
FONTNAME_REGISTRY ""
FOUNDRY "Cronyx"
FAMILY_NAME "Helvetica"
WEIGHT_NAME "Bold"
SLANT "R"
SETWIDTH_NAME "Normal"
ADD_STYLE_NAME ""
AVERAGE_WIDTH 77
CHARSET_REGISTRY "RAWIN"
CHARSET_ENCODING "R"
PIXEL_SIZE 14
POINT_SIZE 140
RESOLUTION_X 75
RESOLUTION_Y 75
COPYRIGHT "Copyright (C) 1990, 1991 EWT Consulting, Portions Copyright (C) 1994 Cronyx Ltd."
ENDPROPERTIES
CHARS 224
STARTCHAR space
ENCODING 32
SWIDTH 250 0
DWIDTH 6 0
BBX 6 24 0 -5
BITMAP
00
00
00
00
00
00
00
00
00
00
00
00
00
00
00
00
00
00
00
00
00
00
00
00
ENDCHAR
STARTCHAR exclam
ENCODING 33
SWIDTH 250 0
DWIDTH 6 0
BBX 6 24 0 -5
BITMAP
00
00
00
00
00
38
38
38
38
38
38
38
38
38
38
00
00
38
38
00
00
00
00
00
ENDCHAR
STARTCHAR quotedbl
ENCODING 34
SWIDTH 333 0
DWIDTH 8 0
BBX 8 24 0 -5
BITMAP
00
00
00
00
00
7E
7E
7E
7E
00
00
00
00
00
00
00
00
00
00
00
00
00
00
00
ENDCHAR
STARTCHAR numbersign
ENCODING 35
SWIDTH 458 0
DWIDTH 11 0
BBX 11 24 0 -5
BITMAP
0000
0000
0000
0000
0000
0D80
0D80
0D80
0D80
3FC0
1B00
1B00
1B00
1B00
7F80
3600
3600
3600
3600
0000
0000
0000
0000
0000
ENDCHAR
STARTCHAR dollar
ENCODING 36
SWIDTH 458 0
DWIDTH 11 0
BBX 11 24 0 -5
BITMAP
0000
0000
0000
0C00
0C00
1E00
7F80
7F80
EC00
FC00
7C00
3F00
0F80
0FC0
0DC0
EDC0
7F80
7F80
1E00
0C00
0C00
0000
0000
0000
ENDCHAR
STARTCHAR percent
ENCODING 37
SWIDTH 666 0
DWIDTH 16 0
BBX 16 24 0 -5
BITMAP
0000
0000
0000
0000
0000
3E1C
7738
6338
6370
77E0
3EE0
01C0
0380
077C
07EE
0EC6
1CC6
1CEE
387C
0000
0000
0000
0000
0000
ENDCHAR
STARTCHAR ampersand
ENCODING 38
SWIDTH 583 0
DWIDTH 14 0
BBX 14 24 0 -5
BITMAP
0000
0000
0000
0000
0000
0E00
1F00
3B80
3B80
3B80
1F00
1E38
3F38
7FF0
73F0
71E0
79F0
3FF8
1F3C
0000
0000
0000
0000
0000
ENDCHAR
STARTCHAR quoteright
ENCODING 39
SWIDTH 208 0
DWIDTH 5 0
BBX 5 24 0 -5
BITMAP
00
00
00
00
00
70
70
70
70
00
00
00
00
00
00
00
00
00
00
00
00
00
00
00
ENDCHAR
STARTCHAR parenleft
ENCODING 40
SWIDTH 291 0
DWIDTH 7 0
BBX 7 24 0 -5
BITMAP
00
00
00
00
00
0C
1C
38
38
70
70
70
70
70
70
70
70
70
70
38
38
1C
0C
00
ENDCHAR
STARTCHAR parenright
ENCODING 41
SWIDTH 291 0
DWIDTH 7 0
BBX 7 24 0 -5
BITMAP
00
00
00
00
00
60
70
38
38
1C
1C
1C
1C
1C
1C
1C
1C
1C
1C
38
38
70
60
00
ENDCHAR
STARTCHAR asterisk
ENCODING 42
SWIDTH 333 0
DWIDTH 8 0
BBX 8 24 0 -5
BITMAP
00
00
00
00
00
18
7E
7E
3C
7E
7E
18
00
00
00
00
00
00
00
00
00
00
00
00
ENDCHAR
STARTCHAR plus
ENCODING 43
SWIDTH 500 0
DWIDTH 12 0
BBX 12 24 0 -5
BITMAP
0000
0000
0000
0000
0000
0000
0000
0700
0700
0700
0700
7FF0
7FF0
0700
0700
0700
0700
0000
0000
0000
0000
0000
0000
0000
ENDCHAR
STARTCHAR comma
ENCODING 44
SWIDTH 250 0
DWIDTH 6 0
BBX 6 24 0 -5
BITMAP
00
00
00
00
00
00
00
00
00
00
00
00
00
00
00
00
00
38
38
18
30
00
00
00
ENDCHAR
STARTCHAR minus
ENCODING 45
SWIDTH 291 0
DWIDTH 7 0
BBX 7 24 0 -5
BITMAP
00
00
00
00
00
00
00
00
00
00
00
00
00
FE
FE
00
00
00
00
00
00
00
00
00
ENDCHAR
STARTCHAR period
ENCODING 46
SWIDTH 250 0
DWIDTH 6 0
BBX 6 24 0 -5
BITMAP
00
00
00
00
00
00
00
00
00
00
00
00
00
00
00
00
00
38
38
00
00
00
00
00
ENDCHAR
STARTCHAR slash
ENCODING 47
SWIDTH 250 0
DWIDTH 6 0
BBX 6 24 0 -5
BITMAP
00
00
00
00
00
1C
1C
1C
1C
38
38
38
38
70
70
70
70
E0
E0
E0
E0
00
00
00
ENDCHAR
STARTCHAR zero
ENCODING 48
SWIDTH 458 0
DWIDTH 11 0
BBX 11 24 0 -5
BITMAP
0000
0000
0000
0000
0000
0F00
3FC0
39C0
70E0
70E0
70E0
70E0
70E0
70E0
70E0
70E0
39C0
3FC0
0F00
0000
0000
0000
0000
0000
ENDCHAR
STARTCHAR one
ENCODING 49
SWIDTH 458 0
DWIDTH 11 0
BBX 11 24 0 -5
BITMAP
0000
0000
0000
0000
0000
0700
0F00
3F00
3F00
0700
0700
0700
0700
0700
0700
0700
0700
0700
0700
0000
0000
0000
0000
0000
ENDCHAR
STARTCHAR two
ENCODING 50
SWIDTH 458 0
DWIDTH 11 0
BBX 11 24 0 -5
BITMAP
0000
0000
0000
0000
0000
1F80
3FC0
79E0
70E0
00E0
01E0
03C0
0F80
1E00
3C00
3800
7000
7FE0
7FE0
0000
0000
0000
0000
0000
ENDCHAR
STARTCHAR three
ENCODING 51
SWIDTH 458 0
DWIDTH 11 0
BBX 11 24 0 -5
BITMAP
0000
0000
0000
0000
0000
0F00
3FC0
39C0
70E0
70E0
01C0
0F80
0FC0
01C0
70E0
70E0
39C0
3FC0
0F00
0000
0000
0000
0000
0000
ENDCHAR
STARTCHAR four
ENCODING 52
SWIDTH 458 0
DWIDTH 11 0
BBX 11 24 0 -5
BITMAP
0000
0000
0000
0000
0000
0780
0780
0F80
0F80
1F80
1F80
3B80
3B80
7380
7FE0
7FE0
0380
0380
0380
0000
0000
0000
0000
0000
ENDCHAR
STARTCHAR five
ENCODING 53
SWIDTH 458 0
DWIDTH 11 0
BBX 11 24 0 -5
BITMAP
0000
0000
0000
0000
0000
3FC0
3FC0
3800
3800
7000
7F00
7FC0
71C0
00E0
00E0
70E0
79C0
3FC0
1F00
0000
0000
0000
0000
0000
ENDCHAR
STARTCHAR six
ENCODING 54
SWIDTH 458 0
DWIDTH 11 0
BBX 11 24 0 -5
BITMAP
0000
0000
0000
0000
0000
0F00
3FC0
39C0
70E0
7000
7F00
7FC0
79C0
70E0
70E0
70E0
39C0
3FC0
0F00
0000
0000
0000
0000
0000
ENDCHAR
STARTCHAR seven
ENCODING 55
SWIDTH 458 0
DWIDTH 11 0
BBX 11 24 0 -5
BITMAP
0000
0000
0000
0000
0000
7FE0
7FE0
00E0
00E0
01C0
01C0
0380
0380
0700
0700
0700
0E00
0E00
0E00
0000
0000
0000
0000
0000
ENDCHAR
STARTCHAR eight
ENCODING 56
SWIDTH 458 0
DWIDTH 11 0
BBX 11 24 0 -5
BITMAP
0000
0000
0000
0000
0000
0F00
3FC0
39C0
70E0
70E0
39C0
1F80
3FC0
39C0
70E0
70E0
39C0
3FC0
0F00
0000
0000
0000
0000
0000
ENDCHAR
STARTCHAR nine
ENCODING 57
SWIDTH 458 0
DWIDTH 11 0
BBX 11 24 0 -5
BITMAP
0000
0000
0000
0000
0000
0F00
3FC0
39C0
70E0
70E0
70E0
39E0
3FE0
0FE0
00E0
70E0
39C0
3FC0
0F00
0000
0000
0000
0000
0000
ENDCHAR
STARTCHAR colon
ENCODING 58
SWIDTH 250 0
DWIDTH 6 0
BBX 6 24 0 -5
BITMAP
00
00
00
00
00
00
00
00
00
38
38
00
00
00
00
00
00
38
38
00
00
00
00
00
ENDCHAR
STARTCHAR semicolon
ENCODING 59
SWIDTH 250 0
DWIDTH 6 0
BBX 6 24 0 -5
BITMAP
00
00
00
00
00
00
00
00
00
38
38
00
00
00
00
00
00
38
38
18
30
00
00
00
ENDCHAR
STARTCHAR less
ENCODING 60
SWIDTH 500 0
DWIDTH 12 0
BBX 12 24 0 -5
BITMAP
0000
0000
0000
0000
0000
0000
0000
0000
0070
01F0
07C0
1F00
7C00
1F00
07C0
01F0
0070
0000
0000
0000
0000
0000
0000
0000
ENDCHAR
STARTCHAR equal
ENCODING 61
SWIDTH 500 0
DWIDTH 12 0
BBX 12 24 0 -5
BITMAP
0000
0000
0000
0000
0000
0000
0000
0000
0000
7FF0
7FF0
0000
0000
7FF0
7FF0
0000
0000
0000
0000
0000
0000
0000
0000
0000
ENDCHAR
STARTCHAR greater
ENCODING 62
SWIDTH 500 0
DWIDTH 12 0
BBX 12 24 0 -5
BITMAP
0000
0000
0000
0000
0000
0000
0000
0000
7000
7C00
1F00
07C0
03F0
07C0
1F00
7C00
7000
0000
0000
0000
0000
0000
0000
0000
ENDCHAR
STARTCHAR question
ENCODING 63
SWIDTH 458 0
DWIDTH 11 0
BBX 11 24 0 -5
BITMAP
0000
0000
0000
0000
0000
0F00
3FC0
39C0
70E0
70E0
01C0
03C0
0780
0700
0E00
0E00
0000
0E00
0E00
0000
0000
0000
0000
0000
ENDCHAR
STARTCHAR at
ENCODING 64
SWIDTH 833 0
DWIDTH 20 0
BBX 20 24 0 -5
BITMAP
000000
000000
000000
000000
000000
03FC00
0F0F00
1C0380
3801C0
3000C0
70FEE0
61DC60
639C60
639C60
6738E0
6739C0
73FF80
300000
380000
1C0300
0F0F00
03FC00
000000
000000
ENDCHAR
STARTCHAR A
ENCODING 65
SWIDTH 583 0
DWIDTH 14 0
BBX 14 24 0 -5
BITMAP
0000
0000
0000
0000
0000
0780
0780
0FC0
0FC0
1CE0
1CE0
1CE0
3870
3FF0
7FF8
7038
7038
E01C
E01C
0000
0000
0000
0000
0000
ENDCHAR
STARTCHAR B
ENCODING 66
SWIDTH 541 0
DWIDTH 13 0
BBX 13 24 0 -5
BITMAP
0000
0000
0000
0000
0000
7FC0
7FE0
70F0
7070
7070
70F0
7FE0
7FE0
70F0
7070
7070
70F0
7FE0
7FC0
0000
0000
0000
0000
0000
ENDCHAR
STARTCHAR C
ENCODING 67
SWIDTH 583 0
DWIDTH 14 0
BBX 14 24 0 -5
BITMAP
0000
0000
0000
0000
0000
07E0
1FF8
3C3C
381C
7000
7000
7000
7000
7000
7000
381C
3C3C
1FF8
07E0
0000
0000
0000
0000
0000
ENDCHAR
STARTCHAR D
ENCODING 68
SWIDTH 583 0
DWIDTH 14 0
BBX 14 24 0 -5
BITMAP
0000
0000
0000
0000
0000
7F80
7FE0
70F0
7070
7038
7038
7038
7038
7038
7038
7070
70F0
7FE0
7F80
0000
0000
0000
0000
0000
ENDCHAR
STARTCHAR E
ENCODING 69
SWIDTH 583 0
DWIDTH 14 0
BBX 14 24 0 -5
BITMAP
0000
0000
0000
0000
0000
7FF8
7FF8
7000
7000
7000
7000
7FF0
7FF0
7000
7000
7000
7000
7FF8
7FF8
0000
0000
0000
0000
0000
ENDCHAR
STARTCHAR F
ENCODING 70
SWIDTH 541 0
DWIDTH 13 0
BBX 13 24 0 -5
BITMAP
0000
0000
0000
0000
0000
7FF8
7FF8
7000
7000
7000
7000
7FF0
7FF0
7000
7000
7000
7000
7000
7000
0000
0000
0000
0000
0000
ENDCHAR
STARTCHAR G
ENCODING 71
SWIDTH 625 0
DWIDTH 15 0
BBX 15 24 0 -5
BITMAP
0000
0000
0000
0000
0000
07E0
1FF8
3C3C
381C
7000
7000
7000
707C
707C
701C
381C
3C3C
1FFC
07FC
0000
0000
0000
0000
0000
ENDCHAR
STARTCHAR H
ENCODING 72
SWIDTH 625 0
DWIDTH 15 0
BBX 15 24 0 -5
BITMAP
0000
0000
0000
0000
0000
701C
701C
701C
701C
701C
701C
7FFC
7FFC
701C
701C
701C
701C
701C
701C
0000
0000
0000
0000
0000
ENDCHAR
STARTCHAR I
ENCODING 73
SWIDTH 208 0
DWIDTH 5 0
BBX 5 24 0 -5
BITMAP
00
00
00
00
00
70
70
70
70
70
70
70
70
70
70
70
70
70
70
00
00
00
00
00
ENDCHAR
STARTCHAR J
ENCODING 74
SWIDTH 416 0
DWIDTH 10 0
BBX 10 24 0 -5
BITMAP
0000
0000
0000
0000
0000
0380
0380
0380
0380
0380
0380
0380
0380
0380
0380
E380
F780
7F00
1C00
0000
0000
0000
0000
0000
ENDCHAR
STARTCHAR K
ENCODING 75
SWIDTH 541 0
DWIDTH 13 0
BBX 13 24 0 -5
BITMAP
0000
0000
0000
0000
0000
70F0
71E0
73C0
7780
7F00
7E00
7C00
7E00
7F00
7780
73C0
71E0
70F0
7078
0000
0000
0000
0000
0000
ENDCHAR
STARTCHAR L
ENCODING 76
SWIDTH 458 0
DWIDTH 11 0
BBX 11 24 0 -5
BITMAP
0000
0000
0000
0000
0000
7000
7000
7000
7000
7000
7000
7000
7000
7000
7000
7000
7000
7FE0
7FE0
0000
0000
0000
0000
0000
ENDCHAR
STARTCHAR M
ENCODING 77
SWIDTH 708 0
DWIDTH 17 0
BBX 17 24 0 -5
BITMAP
000000
000000
000000
000000
000000
700700
700700
780F00
780F00
7C1F00
7C1F00
7E3F00
7E3F00
777700
777700
73E700
73E700
71C700
71C700
000000
000000
000000
000000
000000
ENDCHAR
STARTCHAR N
ENCODING 78
SWIDTH 625 0
DWIDTH 15 0
BBX 15 24 0 -5
BITMAP
0000
0000
0000
0000
0000
781C
7C1C
7C1C
7E1C
7F1C
771C
779C
73DC
71DC
71FC
70FC
707C
707C
703C
0000
0000
0000
0000
0000
ENDCHAR
STARTCHAR O
ENCODING 79
SWIDTH 666 0
DWIDTH 16 0
BBX 16 24 0 -5
BITMAP
0000
0000
0000
0000
0000
07E0
1FF8
3C3C
381C
700E
700E
700E
700E
700E
700E
381C
3C3C
1FF8
07E0
0000
0000
0000
0000
0000
ENDCHAR
STARTCHAR P
ENCODING 80
SWIDTH 541 0
DWIDTH 13 0
BBX 13 24 0 -5
BITMAP
0000
0000
0000
0000
0000
7FC0
7FF0
7070
7038
7038
7038
7070
7FF0
7FC0
7000
7000
7000
7000
7000
0000
0000
0000
0000
0000
ENDCHAR
STARTCHAR Q
ENCODING 81
SWIDTH 666 0
DWIDTH 16 0
BBX 16 24 0 -5
BITMAP
0000
0000
0000
0000
0000
07E0
1FF8
3C3C
381C
700E
700E
700E
700E
706E
70FE
387C
3C3C
1FFE
07EC
0000
0000
0000
0000
0000
ENDCHAR
STARTCHAR R
ENCODING 82
SWIDTH 583 0
DWIDTH 14 0
BBX 14 24 0 -5
BITMAP
0000
0000
0000
0000
0000
7FC0
7FF0
7070
7038
7038
7038
7070
7FF0
7FF0
7038
7038
7038
7038
701C
0000
0000
0000
0000
0000
ENDCHAR
STARTCHAR S
ENCODING 83
SWIDTH 541 0
DWIDTH 13 0
BBX 13 24 0 -5
BITMAP
0000
0000
0000
0000
0000
0F80
3FE0
78F0
7070
7800
3E00
1FC0
07E0
00F0
0070
7070
78F0
3FE0
0F80
0000
0000
0000
0000
0000
ENDCHAR
STARTCHAR T
ENCODING 84
SWIDTH 541 0
DWIDTH 13 0
BBX 13 24 0 -5
BITMAP
0000
0000
0000
0000
0000
FFF8
FFF8
0700
0700
0700
0700
0700
0700
0700
0700
0700
0700
0700
0700
0000
0000
0000
0000
0000
ENDCHAR
STARTCHAR U
ENCODING 85
SWIDTH 583 0
DWIDTH 14 0
BBX 14 24 0 -5
BITMAP
0000
0000
0000
0000
0000
7038
7038
7038
7038
7038
7038
7038
7038
7038
7038
3870
3CF0
1FE0
0780
0000
0000
0000
0000
0000
ENDCHAR
STARTCHAR V
ENCODING 86
SWIDTH 583 0
DWIDTH 14 0
BBX 14 24 0 -5
BITMAP
0000
0000
0000
0000
0000
E01C
E01C
7038
7038
3870
3870
3870
1CE0
1CE0
0FC0
0FC0
0FC0
0780
0780
0000
0000
0000
0000
0000
ENDCHAR
STARTCHAR W
ENCODING 87
SWIDTH 791 0
DWIDTH 19 0
BBX 19 24 0 -5
BITMAP
000000
000000
000000
000000
000000
E0E0E0
E0E0E0
E0E0E0
71F1C0
71F1C0
71F1C0
3BBB80
3BBB80
3BBB80
1F1F00
1F1F00
1F1F00
0E0E00
0E0E00
000000
000000
000000
000000
000000
ENDCHAR
STARTCHAR X
ENCODING 88
SWIDTH 625 0
DWIDTH 15 0
BBX 15 24 0 -5
BITMAP
0000
0000
0000
0000
0000
E00E
F01E
783C
3C78
1EF0
0FE0
07C0
07C0
0FE0
1EF0
3C78
783C
F01E
E00E
0000
0000
0000
0000
0000
ENDCHAR
STARTCHAR Y
ENCODING 89
SWIDTH 541 0
DWIDTH 13 0
BBX 13 24 0 -5
BITMAP
0000
0000
0000
0000
0000
E038
F078
7070
38E0
3DE0
1DC0
0F80
0F80
0700
0700
0700
0700
0700
0700
0000
0000
0000
0000
0000
ENDCHAR
STARTCHAR Z
ENCODING 90
SWIDTH 541 0
DWIDTH 13 0
BBX 13 24 0 -5
BITMAP
0000
0000
0000
0000
0000
7FF8
7FF8
0078
00F0
01E0
03C0
0780
0F00
1E00
3C00
7800
F000
FFF8
FFF8
0000
0000
0000
0000
0000
ENDCHAR
STARTCHAR bracketleft
ENCODING 91
SWIDTH 250 0
DWIDTH 6 0
BBX 6 24 0 -5
BITMAP
00
00
00
00
7C
7C
70
70
70
70
70
70
70
70
70
70
70
70
70
70
70
7C
7C
00
ENDCHAR
STARTCHAR backslash
ENCODING 92
SWIDTH 250 0
DWIDTH 6 0
BBX 6 24 0 -5
BITMAP
00
00
00
00
00
E0
E0
E0
E0
70
70
70
70
38
38
38
38
1C
1C
1C
1C
00
00
00
ENDCHAR
STARTCHAR bracketright
ENCODING 93
SWIDTH 250 0
DWIDTH 6 0
BBX 6 24 0 -5
BITMAP
00
00
00
00
F8
F8
38
38
38
38
38
38
38
38
38
38
38
38
38
38
38
F8
F8
00
ENDCHAR
STARTCHAR asciicircum
ENCODING 94
SWIDTH 416 0
DWIDTH 10 0
BBX 10 24 0 -5
BITMAP
0000
0000
0000
0000
0000
1E00
3F00
7380
0000
0000
0000
0000
0000
0000
0000
0000
0000
0000
0000
0000
0000
0000
0000
0000
ENDCHAR
STARTCHAR underscore
ENCODING 95
SWIDTH 458 0
DWIDTH 11 0
BBX 11 24 0 -5
BITMAP
0000
0000
0000
0000
0000
0000
0000
0000
0000
0000
0000
0000
0000
0000
0000
0000
0000
0000
0000
0000
FFE0
FFE0
0000
0000
ENDCHAR
STARTCHAR quoteleft
ENCODING 96
SWIDTH 291 0
DWIDTH 7 0
BBX 7 24 0 -5
BITMAP
00
00
00
00
00
78
1C
0C
00
00
00
00
00
00
00
00
00
00
00
00
00
00
00
00
ENDCHAR
STARTCHAR a
ENCODING 97
SWIDTH 458 0
DWIDTH 11 0
BBX 11 24 0 -5
BITMAP
0000
0000
0000
0000
0000
0000
0000
0000
0000
1F00
3F80
7BC0
01C0
0FC0
3DC0
71C0
73C0
7FE0
3EE0
0000
0000
0000
0000
0000
ENDCHAR
STARTCHAR b
ENCODING 98
SWIDTH 500 0
DWIDTH 12 0
BBX 12 24 0 -5
BITMAP
0000
0000
0000
0000
0000
7000
7000
7000
7000
7F00
7FC0
79C0
70E0
70E0
70E0
70E0
79C0
7FC0
7F00
0000
0000
0000
0000
0000
ENDCHAR
STARTCHAR c
ENCODING 99
SWIDTH 458 0
DWIDTH 11 0
BBX 11 24 0 -5
BITMAP
0000
0000
0000
0000
0000
0000
0000
0000
0000
0F00
3FC0
39C0
70E0
7000
7000
70E0
39C0
3FC0
0F00
0000
0000
0000
0000
0000
ENDCHAR
STARTCHAR d
ENCODING 100
SWIDTH 500 0
DWIDTH 12 0
BBX 12 24 0 -5
BITMAP
0000
0000
0000
0000
0000
00E0
00E0
00E0
00E0
0FE0
3FE0
39E0
70E0
70E0
70E0
70E0
39E0
3FE0
0FE0
0000
0000
0000
0000
0000
ENDCHAR
STARTCHAR e
ENCODING 101
SWIDTH 500 0
DWIDTH 12 0
BBX 12 24 0 -5
BITMAP
0000
0000
0000
0000
0000
0000
0000
0000
0000
0F00
3FC0
39C0
70E0
7FE0
7FE0
7000
38E0
3FC0
0F00
0000
0000
0000
0000
0000
ENDCHAR
STARTCHAR f
ENCODING 102
SWIDTH 208 0
DWIDTH 5 0
BBX 5 24 0 -5
BITMAP
00
00
00
00
00
38
78
70
70
F8
F8
70
70
70
70
70
70
70
70
00
00
00
00
00
ENDCHAR
STARTCHAR g
ENCODING 103
SWIDTH 500 0
DWIDTH 12 0
BBX 12 24 0 -5
BITMAP
0000
0000
0000
0000
0000
0000
0000
0000
0000
0FE0
3FE0
39E0
70E0
70E0
70E0
70E0
39E0
3FE0
0FE0
70E0
39C0
3FC0
0F00
0000
ENDCHAR
STARTCHAR h
ENCODING 104
SWIDTH 500 0
DWIDTH 12 0
BBX 12 24 0 -5
BITMAP
0000
0000
0000
0000
0000
7000
7000
7000
7000
7F00
7FC0
79C0
70E0
70E0
70E0
70E0
70E0
70E0
70E0
0000
0000
0000
0000
0000
ENDCHAR
STARTCHAR i
ENCODING 105
SWIDTH 208 0
DWIDTH 5 0
BBX 5 24 0 -5
BITMAP
00
00
00
00
00
70
70
00
00
70
70
70
70
70
70
70
70
70
70
00
00
00
00
00
ENDCHAR
STARTCHAR j
ENCODING 106
SWIDTH 208 0
DWIDTH 5 0
BBX 5 24 0 -5
BITMAP
00
00
00
00
00
70
70
00
00
70
70
70
70
70
70
70
70
70
70
70
70
F0
E0
00
ENDCHAR
STARTCHAR k
ENCODING 107
SWIDTH 416 0
DWIDTH 10 0
BBX 10 24 0 -5
BITMAP
0000
0000
0000
0000
0000
7000
7000
7000
7000
71C0
7380
7700
7E00
7C00
7E00
7700
7380
71C0
70C0
0000
0000
0000
0000
0000
ENDCHAR
STARTCHAR l
ENCODING 108
SWIDTH 208 0
DWIDTH 5 0
BBX 5 24 0 -5
BITMAP
00
00
00
00
00
70
70
70
70
70
70
70
70
70
70
70
70
70
70
00
00
00
00
00
ENDCHAR
STARTCHAR m
ENCODING 109
SWIDTH 708 0
DWIDTH 17 0
BBX 17 24 0 -5
BITMAP
000000
000000
000000
000000
000000
000000
000000
000000
000000
7F3C00
7FFE00
7BEF00
71C700
71C700
71C700
71C700
71C700
71C700
71C700
000000
000000
000000
000000
000000
ENDCHAR
STARTCHAR n
ENCODING 110
SWIDTH 500 0
DWIDTH 12 0
BBX 12 24 0 -5
BITMAP
0000
0000
0000
0000
0000
0000
0000
0000
0000
7F00
7FC0
79C0
70E0
70E0
70E0
70E0
70E0
70E0
70E0
0000
0000
0000
0000
0000
ENDCHAR
STARTCHAR o
ENCODING 111
SWIDTH 500 0
DWIDTH 12 0
BBX 12 24 0 -5
BITMAP
0000
0000
0000
0000
0000
0000
0000
0000
0000
0F00
3FC0
39C0
70E0
70E0
70E0
70E0
39C0
3FC0
0F00
0000
0000
0000
0000
0000
ENDCHAR
STARTCHAR p
ENCODING 112
SWIDTH 500 0
DWIDTH 12 0
BBX 12 24 0 -5
BITMAP
0000
0000
0000
0000
0000
0000
0000
0000
0000
7F00
7FC0
79C0
70E0
70E0
70E0
70E0
79C0
7FC0
7F00
7000
7000
7000
7000
0000
ENDCHAR
STARTCHAR q
ENCODING 113
SWIDTH 500 0
DWIDTH 12 0
BBX 12 24 0 -5
BITMAP
0000
0000
0000
0000
0000
0000
0000
0000
0000
0FE0
3FE0
39E0
70E0
70E0
70E0
70E0
39E0
3FE0
0FE0
00E0
00E0
00E0
00E0
0000
ENDCHAR
STARTCHAR r
ENCODING 114
SWIDTH 291 0
DWIDTH 7 0
BBX 7 24 0 -5
BITMAP
00
00
00
00
00
00
00
00
00
7E
7E
78
70
70
70
70
70
70
70
00
00
00
00
00
ENDCHAR
STARTCHAR s
ENCODING 115
SWIDTH 416 0
DWIDTH 10 0
BBX 10 24 0 -5
BITMAP
0000
0000
0000
0000
0000
0000
0000
0000
0000
1E00
3F00
7380
7800
3E00
0F00
0380
7380
3F00
1E00
0000
0000
0000
0000
0000
ENDCHAR
STARTCHAR t
ENCODING 116
SWIDTH 208 0
DWIDTH 5 0
BBX 5 24 0 -5
BITMAP
00
00
00
00
00
00
70
70
70
F8
F8
70
70
70
70
70
70
78
38
00
00
00
00
00
ENDCHAR
STARTCHAR u
ENCODING 117
SWIDTH 500 0
DWIDTH 12 0
BBX 12 24 0 -5
BITMAP
0000
0000
0000
0000
0000
0000
0000
0000
0000
70E0
70E0
70E0
70E0
70E0
70E0
70E0
39E0
3FE0
0FE0
0000
0000
0000
0000
0000
ENDCHAR
STARTCHAR v
ENCODING 118
SWIDTH 416 0
DWIDTH 10 0
BBX 10 24 0 -5
BITMAP
0000
0000
0000
0000
0000
0000
0000
0000
0000
E1C0
E1C0
E1C0
7380
7380
3F00
3F00
3F00
1E00
1E00
0000
0000
0000
0000
0000
ENDCHAR
STARTCHAR w
ENCODING 119
SWIDTH 625 0
DWIDTH 15 0
BBX 15 24 0 -5
BITMAP
0000
0000
0000
0000
0000
0000
0000
0000
0000
E38E
E38E
739C
77DC
77DC
3EF8
3EF8
1EF0
1C70
1C70
0000
0000
0000
0000
0000
ENDCHAR
STARTCHAR x
ENCODING 120
SWIDTH 458 0
DWIDTH 11 0
BBX 11 24 0 -5
BITMAP
0000
0000
0000
0000
0000
0000
0000
0000
0000
E0E0
F1E0
7BC0
3F80
1F00
1F00
3F80
7BC0
F1E0
E0E0
0000
0000
0000
0000
0000
ENDCHAR
STARTCHAR y
ENCODING 121
SWIDTH 416 0
DWIDTH 10 0
BBX 10 24 0 -5
BITMAP
0000
0000
0000
0000
0000
0000
0000
0000
0000
E1C0
E1C0
E1C0
7380
7380
3F00
3F00
3F00
1E00
1E00
1C00
1C00
7C00
7800
0000
ENDCHAR
STARTCHAR z
ENCODING 122
SWIDTH 416 0
DWIDTH 10 0
BBX 10 24 0 -5
BITMAP
0000
0000
0000
0000
0000
0000
0000
0000
0000
FFC0
FFC0
0380
0700
0E00
1C00
3800
7000
FFC0
FFC0
0000
0000
0000
0000
0000
ENDCHAR
STARTCHAR braceleft
ENCODING 123
SWIDTH 291 0
DWIDTH 7 0
BBX 7 24 0 -5
BITMAP
00
00
00
00
00
0E
1C
1C
1C
1C
1C
1C
38
70
70
38
1C
1C
1C
1C
1C
1C
0E
00
ENDCHAR
STARTCHAR bar
ENCODING 124
SWIDTH 208 0
DWIDTH 5 0
BBX 5 24 0 -5
BITMAP
00
00
00
00
00
70
70
70
70
70
70
70
70
70
70
70
70
70
70
70
70
70
70
70
ENDCHAR
STARTCHAR braceright
ENCODING 125
SWIDTH 291 0
DWIDTH 7 0
BBX 7 24 0 -5
BITMAP
00
00
00
00
00
E0
70
70
70
70
70
70
38
1C
1C
38
70
70
70
70
70
70
E0
00
ENDCHAR
STARTCHAR asciitilde
ENCODING 126
SWIDTH 500 0
DWIDTH 12 0
BBX 12 24 0 -5
BITMAP
0000
0000
0000
0000
0000
3CE0
7FE0
73C0
0000
0000
0000
0000
0000
0000
0000
0000
0000
0000
0000
0000
0000
0000
0000
0000
ENDCHAR
STARTCHAR C177
ENCODING -1
SWIDTH 291 0
DWIDTH 7 0
BBX 7 24 0 -5
BITMAP
00
00
00
00
00
7C
7C
7C
7C
7C
7C
7C
7C
7C
7C
7C
7C
7C
7C
00
00
00
00
00
ENDCHAR
STARTCHAR C200
ENCODING -1
SWIDTH 291 0
DWIDTH 7 0
BBX 7 24 0 -5
BITMAP
00
00
00
00
00
7C
7C
7C
7C
7C
7C
7C
7C
7C
7C
7C
7C
7C
7C
00
00
00
00
00
ENDCHAR
STARTCHAR C201
ENCODING -1
SWIDTH 291 0
DWIDTH 7 0
BBX 7 24 0 -5
BITMAP
00
00
00
00
00
7C
7C
7C
7C
7C
7C
7C
7C
7C
7C
7C
7C
7C
7C
00
00
00
00
00
ENDCHAR
STARTCHAR C202
ENCODING -1
SWIDTH 291 0
DWIDTH 7 0
BBX 7 24 0 -5
BITMAP
00
00
00
00
00
7C
7C
7C
7C
7C
7C
7C
7C
7C
7C
7C
7C
7C
7C
00
00
00
00
00
ENDCHAR
STARTCHAR C203
ENCODING -1
SWIDTH 291 0
DWIDTH 7 0
BBX 7 24 0 -5
BITMAP
00
00
00
00
00
7C
7C
7C
7C
7C
7C
7C
7C
7C
7C
7C
7C
7C
7C
00
00
00
00
00
ENDCHAR
STARTCHAR C204
ENCODING -1
SWIDTH 291 0
DWIDTH 7 0
BBX 7 24 0 -5
BITMAP
00
00
00
00
00
7C
7C
7C
7C
7C
7C
7C
7C
7C
7C
7C
7C
7C
7C
00
00
00
00
00
ENDCHAR
STARTCHAR C205
ENCODING -1
SWIDTH 291 0
DWIDTH 7 0
BBX 7 24 0 -5
BITMAP
00
00
00
00
00
7C
7C
7C
7C
7C
7C
7C
7C
7C
7C
7C
7C
7C
7C
00
00
00
00
00
ENDCHAR
STARTCHAR C206
ENCODING -1
SWIDTH 291 0
DWIDTH 7 0
BBX 7 24 0 -5
BITMAP
00
00
00
00
00
7C
7C
7C
7C
7C
7C
7C
7C
7C
7C
7C
7C
7C
7C
00
00
00
00
00
ENDCHAR
STARTCHAR C207
ENCODING -1
SWIDTH 291 0
DWIDTH 7 0
BBX 7 24 0 -5
BITMAP
00
00
00
00
00
7C
7C
7C
7C
7C
7C
7C
7C
7C
7C
7C
7C
7C
7C
00
00
00
00
00
ENDCHAR
STARTCHAR C210
ENCODING -1
SWIDTH 291 0
DWIDTH 7 0
BBX 7 24 0 -5
BITMAP
00
00
00
00
00
7C
7C
7C
7C
7C
7C
7C
7C
7C
7C
7C
7C
7C
7C
00
00
00
00
00
ENDCHAR
STARTCHAR C211
ENCODING -1
SWIDTH 291 0
DWIDTH 7 0
BBX 7 24 0 -5
BITMAP
00
00
00
00
00
7C
7C
7C
7C
7C
7C
7C
7C
7C
7C
7C
7C
7C
7C
00
00
00
00
00
ENDCHAR
STARTCHAR C212
ENCODING -1
SWIDTH 291 0
DWIDTH 7 0
BBX 7 24 0 -5
BITMAP
00
00
00
00
00
7C
7C
7C
7C
7C
7C
7C
7C
7C
7C
7C
7C
7C
7C
00
00
00
00
00
ENDCHAR
STARTCHAR C213
ENCODING -1
SWIDTH 291 0
DWIDTH 7 0
BBX 7 24 0 -5
BITMAP
00
00
00
00
00
7C
7C
7C
7C
7C
7C
7C
7C
7C
7C
7C
7C
7C
7C
00
00
00
00
00
ENDCHAR
STARTCHAR C214
ENCODING -1
SWIDTH 291 0
DWIDTH 7 0
BBX 7 24 0 -5
BITMAP
00
00
00
00
00
7C
7C
7C
7C
7C
7C
7C
7C
7C
7C
7C
7C
7C
7C
00
00
00
00
00
ENDCHAR
STARTCHAR C215
ENCODING -1
SWIDTH 291 0
DWIDTH 7 0
BBX 7 24 0 -5
BITMAP
00
00
00
00
00
7C
7C
7C
7C
7C
7C
7C
7C
7C
7C
7C
7C
7C
7C
00
00
00
00
00
ENDCHAR
STARTCHAR C216
ENCODING -1
SWIDTH 291 0
DWIDTH 7 0
BBX 7 24 0 -5
BITMAP
00
00
00
00
00
7C
7C
7C
7C
7C
7C
7C
7C
7C
7C
7C
7C
7C
7C
00
00
00
00
00
ENDCHAR
STARTCHAR C217
ENCODING -1
SWIDTH 291 0
DWIDTH 7 0
BBX 7 24 0 -5
BITMAP
00
00
00
00
00
7C
7C
7C
7C
7C
7C
7C
7C
7C
7C
7C
7C
7C
7C
00
00
00
00
00
ENDCHAR
STARTCHAR C220
ENCODING -1
SWIDTH 291 0
DWIDTH 7 0
BBX 7 24 0 -5
BITMAP
00
00
00
00
00
7C
7C
7C
7C
7C
7C
7C
7C
7C
7C
7C
7C
7C
7C
00
00
00
00
00
ENDCHAR
STARTCHAR C221
ENCODING -1
SWIDTH 250 0
DWIDTH 6 0
BBX 6 24 0 -5
BITMAP
00
00
00
00
00
18
30
38
38
00
00
00
00
00
00
00
00
00
00
00
00
00
00
00
ENDCHAR
STARTCHAR C222
ENCODING -1
SWIDTH 250 0
DWIDTH 6 0
BBX 6 24 0 -5
BITMAP
00
00
00
00
00
70
70
30
60
00
00
00
00
00
00
00
00
00
00
00
00
00
00
00
ENDCHAR
STARTCHAR C223
ENCODING -1
SWIDTH 291 0
DWIDTH 7 0
BBX 7 24 0 -5
BITMAP
00
00
00
00
00
7C
7C
7C
7C
7C
7C
7C
7C
7C
7C
7C
7C
7C
7C
00
00
00
00
00
ENDCHAR
STARTCHAR C224
ENCODING -1
SWIDTH 291 0
DWIDTH 7 0
BBX 7 24 0 -5
BITMAP
00
00
00
00
00
7C
7C
7C
7C
7C
7C
7C
7C
7C
7C
7C
7C
7C
7C
00
00
00
00
00
ENDCHAR
STARTCHAR C225
ENCODING -1
SWIDTH 291 0
DWIDTH 7 0
BBX 7 24 0 -5
BITMAP
00
00
00
00
00
7C
7C
7C
7C
7C
7C
7C
7C
7C
7C
7C
7C
7C
7C
00
00
00
00
00
ENDCHAR
STARTCHAR C226
ENCODING -1
SWIDTH 291 0
DWIDTH 7 0
BBX 7 24 0 -5
BITMAP
00
00
00
00
00
7C
7C
7C
7C
7C
7C
7C
7C
7C
7C
7C
7C
7C
7C
00
00
00
00
00
ENDCHAR
STARTCHAR C227
ENCODING -1
SWIDTH 291 0
DWIDTH 7 0
BBX 7 24 0 -5
BITMAP
00
00
00
00
00
7C
7C
7C
7C
7C
7C
7C
7C
7C
7C
7C
7C
7C
7C
00
00
00
00
00
ENDCHAR
STARTCHAR C230
ENCODING -1
SWIDTH 291 0
DWIDTH 7 0
BBX 7 24 0 -5
BITMAP
00
00
00
00
00
7C
7C
7C
7C
7C
7C
7C
7C
7C
7C
7C
7C
7C
7C
00
00
00
00
00
ENDCHAR
STARTCHAR C231
ENCODING -1
SWIDTH 291 0
DWIDTH 7 0
BBX 7 24 0 -5
BITMAP
00
00
00
00
00
7C
7C
7C
7C
7C
7C
7C
7C
7C
7C
7C
7C
7C
7C
00
00
00
00
00
ENDCHAR
STARTCHAR C232
ENCODING -1
SWIDTH 291 0
DWIDTH 7 0
BBX 7 24 0 -5
BITMAP
00
00
00
00
00
7C
7C
7C
7C
7C
7C
7C
7C
7C
7C
7C
7C
7C
7C
00
00
00
00
00
ENDCHAR
STARTCHAR C233
ENCODING -1
SWIDTH 291 0
DWIDTH 7 0
BBX 7 24 0 -5
BITMAP
00
00
00
00
00
7C
7C
7C
7C
7C
7C
7C
7C
7C
7C
7C
7C
7C
7C
00
00
00
00
00
ENDCHAR
STARTCHAR C234
ENCODING -1
SWIDTH 291 0
DWIDTH 7 0
BBX 7 24 0 -5
BITMAP
00
00
00
00
00
7C
7C
7C
7C
7C
7C
7C
7C
7C
7C
7C
7C
7C
7C
00
00
00
00
00
ENDCHAR
STARTCHAR C235
ENCODING -1
SWIDTH 291 0
DWIDTH 7 0
BBX 7 24 0 -5
BITMAP
00
00
00
00
00
7C
7C
7C
7C
7C
7C
7C
7C
7C
7C
7C
7C
7C
7C
00
00
00
00
00
ENDCHAR
STARTCHAR C236
ENCODING -1
SWIDTH 291 0
DWIDTH 7 0
BBX 7 24 0 -5
BITMAP
00
00
00
00
00
7C
7C
7C
7C
7C
7C
7C
7C
7C
7C
7C
7C
7C
7C
00
00
00
00
00
ENDCHAR
STARTCHAR C237
ENCODING -1
SWIDTH 291 0
DWIDTH 7 0
BBX 7 24 0 -5
BITMAP
00
00
00
00
00
7C
7C
7C
7C
7C
7C
7C
7C
7C
7C
7C
7C
7C
7C
00
00
00
00
00
ENDCHAR
STARTCHAR C240
ENCODING 160
SWIDTH 250 0
DWIDTH 6 0
BBX 6 24 0 -5
BITMAP
00
00
00
00
00
00
00
00
00
00
00
00
00
00
00
00
00
00
00
00
00
00
00
00
ENDCHAR
STARTCHAR exclamdown
ENCODING 161
SWIDTH 250 0
DWIDTH 6 0
BBX 6 24 0 -5
BITMAP
00
00
00
00
00
70
70
00
00
70
70
70
70
70
70
70
70
70
70
00
00
00
00
00
ENDCHAR
STARTCHAR cent
ENCODING 162
SWIDTH 458 0
DWIDTH 11 0
BBX 11 24 0 -5
BITMAP
0000
0000
0000
0000
0000
0000
0000
0180
0180
0F80
3FC0
3BC0
7300
7700
7600
7600
3FC0
3FC0
1F00
1800
1800
0000
0000
0000
ENDCHAR
STARTCHAR sterling
ENCODING 184
SWIDTH 458 0
DWIDTH 11 0
BBX 11 24 0 -5
BITMAP
0000
0000
0000
0000
0000
0F80
1FC0
38E0
3800
3800
3800
7F00
3800
1C00
1C00
1C00
38E0
7FE0
7FC0
0000
0000
0000
0000
0000
ENDCHAR
STARTCHAR currency
ENCODING 164
SWIDTH 458 0
DWIDTH 11 0
BBX 11 24 0 -5
BITMAP
0000
0000
0000
0000
0000
0000
70E0
7FE0
3FC0
39C0
39C0
39C0
3FC0
7FE0
70E0
0000
0000
0000
0000
0000
0000
0000
0000
0000
ENDCHAR
STARTCHAR yen
ENCODING 165
SWIDTH 458 0
DWIDTH 11 0
BBX 11 24 0 -5
BITMAP
0000
0000
0000
0000
0000
E0E0
E0E0
71C0
71C0
3B80
7FC0
7FC0
1F00
0E00
7FC0
7FC0
0E00
0E00
0E00
0000
0000
0000
0000
0000
ENDCHAR
STARTCHAR brokenbar
ENCODING 166
SWIDTH 208 0
DWIDTH 5 0
BBX 5 24 0 -5
BITMAP
00
00
00
00
00
70
70
70
70
70
70
70
70
00
00
70
70
70
70
70
70
70
70
00
ENDCHAR
STARTCHAR section
ENCODING 167
SWIDTH 458 0
DWIDTH 11 0
BBX 11 24 0 -5
BITMAP
0000
0000
0000
0000
0000
1F00
3F80
3B80
3800
7C00
7E00
7700
3B80
1DC0
0FC0
07C0
0380
3B80
3F80
1F00
0000
0000
0000
0000
ENDCHAR
STARTCHAR dieresis
ENCODING 168
SWIDTH 291 0
DWIDTH 7 0
BBX 7 24 0 -5
BITMAP
00
00
00
00
00
EE
EE
00
00
00
00
00
00
00
00
00
00
00
00
00
00
00
00
00
ENDCHAR
STARTCHAR copyright
ENCODING 169
SWIDTH 625 0
DWIDTH 15 0
BBX 15 24 0 -5
BITMAP
0000
0000
0000
0000
0000
0FC0
3CF0
7038
67D8
EEFC
9C0C
9C0C
9C0C
9C0C
EEFC
67D8
7038
3CF0
0FC0
0000
0000
0000
0000
0000
ENDCHAR
STARTCHAR ordfeminine
ENCODING 170
SWIDTH 333 0
DWIDTH 8 0
BBX 8 24 0 -5
BITMAP
00
00
00
00
00
3E
77
1F
3F
77
3F
00
7F
00
00
00
00
00
00
00
00
00
00
00
ENDCHAR
STARTCHAR guillemotleft
ENCODING 171
SWIDTH 458 0
DWIDTH 11 0
BBX 11 24 0 -5
BITMAP
0000
0000
0000
0000
0000
0000
0000
0000
0000
0000
0000
0000
1980
3B80
7700
3B80
1980
0000
0000
0000
0000
0000
0000
0000
ENDCHAR
STARTCHAR logicalnot
ENCODING 172
SWIDTH 500 0
DWIDTH 12 0
BBX 12 24 0 -5
BITMAP
0000
0000
0000
0000
0000
0000
0000
0000
0000
0000
0000
7FE0
7FE0
00E0
00E0
00E0
0000
0000
0000
0000
0000
0000
0000
0000
ENDCHAR
STARTCHAR hyphen
ENCODING 173
SWIDTH 291 0
DWIDTH 7 0
BBX 7 24 0 -5
BITMAP
00
00
00
00
00
00
00
00
00
00
00
00
00
FE
FE
00
00
00
00
00
00
00
00
00
ENDCHAR
STARTCHAR registered
ENCODING 174
SWIDTH 625 0
DWIDTH 15 0
BBX 15 24 0 -5
BITMAP
0000
0000
0000
0000
0000
07E0
1E78
381C
3FEC
7E7E
6E76
6E76
6FE6
6E76
7E7E
3E7C
381C
1E78
07E0
0000
0000
0000
0000
0000
ENDCHAR
STARTCHAR macron
ENCODING 175
SWIDTH 458 0
DWIDTH 11 0
BBX 11 24 0 -5
BITMAP
0000
0000
FFE0
FFE0
0000
0000
0000
0000
0000
0000
0000
0000
0000
0000
0000
0000
0000
0000
0000
0000
0000
0000
0000
0000
ENDCHAR
STARTCHAR degree
ENCODING 176
SWIDTH 291 0
DWIDTH 7 0
BBX 7 24 0 -5
BITMAP
00
00
00
00
00
3C
7E
66
7E
3C
00
00
00
00
00
00
00
00
00
00
00
00
00
00
ENDCHAR
STARTCHAR plusminus
ENCODING 177
SWIDTH 500 0
DWIDTH 12 0
BBX 12 24 0 -5
BITMAP
0000
0000
0000
0000
0000
0000
0000
0000
0700
0700
0700
3FE0
3FE0
0700
0700
0700
0000
3FE0
3FE0
0000
0000
0000
0000
0000
ENDCHAR
STARTCHAR twosuperior
ENCODING 178
SWIDTH 250 0
DWIDTH 6 0
BBX 6 24 0 -5
BITMAP
00
00
00
00
00
78
FC
9C
38
70
E0
FC
00
00
00
00
00
00
00
00
00
00
00
00
ENDCHAR
STARTCHAR threesuperior
ENCODING 168
SWIDTH 250 0
DWIDTH 6 0
BBX 6 24 0 -5
BITMAP
00
00
00
00
00
78
FC
1C
78
1C
FC
78
00
00
00
00
00
00
00
00
00
00
00
00
ENDCHAR
STARTCHAR acute
ENCODING 180
SWIDTH 291 0
DWIDTH 7 0
BBX 7 24 0 -5
BITMAP
00
00
00
00
00
3C
70
60
00
00
00
00
00
00
00
00
00
00
00
00
00
00
00
00
ENDCHAR
STARTCHAR mu
ENCODING 181
SWIDTH 416 0
DWIDTH 10 0
BBX 10 24 0 -5
BITMAP
0000
0000
0000
0000
0000
0000
0000
0000
0000
71C0
71C0
71C0
71C0
71C0
71C0
71C0
7BC0
7FC0
7FC0
7000
7000
7000
7000
0000
ENDCHAR
STARTCHAR paragraph
ENCODING 182
SWIDTH 458 0
DWIDTH 11 0
BBX 11 24 0 -5
BITMAP
0000
0000
0000
0000
0000
0FC0
3F80
3F80
7F80
7F80
7F80
3F80
3F80
0F80
0780
0780
0780
0780
0780
0780
0780
0000
0000
0000
ENDCHAR
STARTCHAR periodcentered
ENCODING 183
SWIDTH 250 0
DWIDTH 6 0
BBX 6 24 0 -5
BITMAP
00
00
00
00
00
00
00
00
00
00
38
38
00
00
00
00
00
00
00
00
00
00
00
00
ENDCHAR
STARTCHAR cedilla
ENCODING 184
SWIDTH 291 0
DWIDTH 7 0
BBX 7 24 0 -5
BITMAP
00
00
00
00
00
00
00
00
00
00
00
00
00
00
00
00
00
00
00
30
3C
1C
F8
00
ENDCHAR
STARTCHAR onesuperior
ENCODING 185
SWIDTH 250 0
DWIDTH 6 0
BBX 6 24 0 -5
BITMAP
00
00
00
00
00
38
78
F8
38
38
38
38
00
00
00
00
00
00
00
00
00
00
00
00
ENDCHAR
STARTCHAR ordmasculine
ENCODING 186
SWIDTH 333 0
DWIDTH 8 0
BBX 8 24 0 -5
BITMAP
00
00
00
00
00
3E
77
77
77
77
3E
00
7F
00
00
00
00
00
00
00
00
00
00
00
ENDCHAR
STARTCHAR guillemotright
ENCODING 187
SWIDTH 458 0
DWIDTH 11 0
BBX 11 24 0 -5
BITMAP
0000
0000
0000
0000
0000
0000
0000
0000
0000
0000
0000
0000
3300
3B80
1DC0
3B80
3300
0000
0000
0000
0000
0000
0000
0000
ENDCHAR
STARTCHAR onequarter
ENCODING 188
SWIDTH 666 0
DWIDTH 16 0
BBX 16 24 0 -5
BITMAP
0000
0000
0000
0000
0000
1C1C
3C38
7C38
1C70
1CE0
1CE0
1DC0
039C
073C
077C
0EDC
1CFC
1C1C
381C
0000
0000
0000
0000
0000
ENDCHAR
STARTCHAR onehalf
ENCODING 189
SWIDTH 666 0
DWIDTH 16 0
BBX 16 24 0 -5
BITMAP
0000
0000
0000
0000
0000
1C1C
3C38
7C38
1C70
1CE0
1CE0
1DC0
03F8
07FC
07DC
0E38
1C70
1CE0
38FC
0000
0000
0000
0000
0000
ENDCHAR
STARTCHAR threequarters
ENCODING 190
SWIDTH 666 0
DWIDTH 16 0
BBX 16 24 0 -5
BITMAP
0000
0000
0000
0000
0000
3C1C
7E38
0E38
3C70
0EE0
7EE0
3DC0
039C
073C
077C
0EDC
1CFC
1C1C
381C
0000
0000
0000
0000
0000
ENDCHAR
STARTCHAR questiondown
ENCODING 191
SWIDTH 458 0
DWIDTH 11 0
BBX 11 24 0 -5
BITMAP
0000
0000
0000
0000
0000
0E00
0E00
0000
0E00
0E00
1C00
3C00
7800
7000
E1C0
E1C0
7380
7F80
1E00
0000
0000
0000
0000
0000
ENDCHAR
STARTCHAR cyr-A
ENCODING 192
SWIDTH 583 0
DWIDTH 14 0
BBX 14 24 0 -5
BITMAP
0000
0000
0000
0000
0000
0780
0780
0FC0
0FC0
1CE0
1CE0
1CE0
3870
3FF0
7FF8
7038
7038
E01C
E01C
0000
0000
0000
0000
0000
ENDCHAR
STARTCHAR cyr-Be
ENCODING 193
SWIDTH 541 0
DWIDTH 13 0
BBX 13 24 0 -5
BITMAP
0000
0000
0000
0000
0000
7FE0
7FE0
7000
7000
7000
7000
7FE0
7FE0
70F0
7070
7070
70F0
7FE0
7FC0
0000
0000
0000
0000
0000
ENDCHAR
STARTCHAR cyr-Ve
ENCODING 194
SWIDTH 541 0
DWIDTH 13 0
BBX 13 24 0 -5
BITMAP
0000
0000
0000
0000
0000
7FC0
7FE0
70F0
7070
7070
70F0
7FE0
7FE0
70F0
7070
7070
70F0
7FE0
7FC0
0000
0000
0000
0000
0000
ENDCHAR
STARTCHAR cyr-Ghe
ENCODING 195
SWIDTH 583 0
DWIDTH 14 0
BBX 14 24 0 -5
BITMAP
0000
0000
0000
0000
0000
7FF8
7FF8
7000
7000
7000
7000
7000
7000
7000
7000
7000
7000
7000
7000
0000
0000
0000
0000
0000
ENDCHAR
STARTCHAR cyr-De
ENCODING 196
SWIDTH 666 0
DWIDTH 16 0
BBX 16 24 0 -5
BITMAP
0000
0000
0000
0000
0000
0FF8
0FF8
0E38
0E38
0E38
0E38
0E38
0E38
0E38
0E38
0E38
1C38
7FFE
7FFE
700E
700E
0000
0000
0000
ENDCHAR
STARTCHAR cyr-Ie
ENCODING 197
SWIDTH 583 0
DWIDTH 14 0
BBX 14 24 0 -5
BITMAP
0000
0000
0000
0000
0000
7FF8
7FF8
7000
7000
7000
7000
7FF0
7FF0
7000
7000
7000
7000
7FF8
7FF8
0000
0000
0000
0000
0000
ENDCHAR
STARTCHAR cyr-Zhe
ENCODING 198
SWIDTH 791 0
DWIDTH 19 0
BBX 19 24 0 -5
BITMAP
000000
000000
000000
000000
000000
70E1C0
78E3C0
3CE780
1EEF00
0FFE00
07FC00
03F800
07FC00
0FFE00
1EEF00
3CE780
78E3C0
F0E1E0
E0E0E0
000000
000000
000000
000000
000000
ENDCHAR
STARTCHAR cyr-Ze
ENCODING 199
SWIDTH 500 0
DWIDTH 12 0
BBX 12 24 0 -5
BITMAP
0000
0000
0000
0000
0000
1F80
3FC0
70E0
00E0
00E0
01C0
0780
0780
01C0
00E0
00E0
70E0
3FC0
1F80
0000
0000
0000
0000
0000
ENDCHAR
STARTCHAR cyr-I
ENCODING 200
SWIDTH 625 0
DWIDTH 15 0
BBX 15 24 0 -5
BITMAP
0000
0000
0000
0000
0000
701C
701C
703C
707C
70FC
71FC
73DC
779C
7F1C
7E1C
7C1C
781C
701C
701C
0000
0000
0000
0000
0000
ENDCHAR
STARTCHAR cyr-I-short
ENCODING 201
SWIDTH 625 0
DWIDTH 15 0
BBX 15 24 0 -5
BITMAP
0000
0000
1C70
0FE0
07C0
701C
701C
703C
707C
70FC
71FC
73DC
779C
7F1C
7E1C
7C1C
781C
701C
701C
0000
0000
0000
0000
0000
ENDCHAR
STARTCHAR cyr-Ka
ENCODING 202
SWIDTH 541 0
DWIDTH 13 0
BBX 13 24 0 -5
BITMAP
0000
0000
0000
0000
0000
70F0
71E0
73C0
7780
7F00
7E00
7C00
7E00
7F00
7780
73C0
71E0
70F0
7078
0000
0000
0000
0000
0000
ENDCHAR
STARTCHAR cyr-El
ENCODING 203
SWIDTH 583 0
DWIDTH 14 0
BBX 14 24 0 -5
BITMAP
0000
0000
0000
0000
0000
1FF8
1FF8
1C38
1C38
1C38
1C38
1C38
1C38
1C38
1C38
1C38
1C38
3C38
7838
0000
0000
0000
0000
0000
ENDCHAR
STARTCHAR cyr-Em
ENCODING 204
SWIDTH 708 0
DWIDTH 17 0
BBX 17 24 0 -5
BITMAP
000000
000000
000000
000000
000000
700700
700700
780F00
780F00
7C1F00
7C1F00
7E3F00
7E3F00
777700
777700
73E700
73E700
71C700
71C700
000000
000000
000000
000000
000000
ENDCHAR
STARTCHAR cyr-En
ENCODING 205
SWIDTH 625 0
DWIDTH 15 0
BBX 15 24 0 -5
BITMAP
0000
0000
0000
0000
0000
701C
701C
701C
701C
701C
701C
7FFC
7FFC
701C
701C
701C
701C
701C
701C
0000
0000
0000
0000
0000
ENDCHAR
STARTCHAR cyr-O
ENCODING 206
SWIDTH 666 0
DWIDTH 16 0
BBX 16 24 0 -5
BITMAP
0000
0000
0000
0000
0000
07E0
1FF8
3C3C
381C
700E
700E
700E
700E
700E
700E
381C
3C3C
1FF8
07E0
0000
0000
0000
0000
0000
ENDCHAR
STARTCHAR cyr-Pe
ENCODING 207
SWIDTH 625 0
DWIDTH 15 0
BBX 15 24 0 -5
BITMAP
0000
0000
0000
0000
0000
7FFC
7FFC
701C
701C
701C
701C
701C
701C
701C
701C
701C
701C
701C
701C
0000
0000
0000
0000
0000
ENDCHAR
STARTCHAR cyr-Er
ENCODING 208
SWIDTH 541 0
DWIDTH 13 0
BBX 13 24 0 -5
BITMAP
0000
0000
0000
0000
0000
7FC0
7FF0
7070
7038
7038
7038
7070
7FF0
7FC0
7000
7000
7000
7000
7000
0000
0000
0000
0000
0000
ENDCHAR
STARTCHAR cyr-Es
ENCODING 209
SWIDTH 583 0
DWIDTH 14 0
BBX 14 24 0 -5
BITMAP
0000
0000
0000
0000
0000
07E0
1FF8
3C3C
381C
7000
7000
7000
7000
7000
7000
381C
3C3C
1FF8
07E0
0000
0000
0000
0000
0000
ENDCHAR
STARTCHAR cyr-Te
ENCODING 210
SWIDTH 541 0
DWIDTH 13 0
BBX 13 24 0 -5
BITMAP
0000
0000
0000
0000
0000
FFF8
FFF8
0700
0700
0700
0700
0700
0700
0700
0700
0700
0700
0700
0700
0000
0000
0000
0000
0000
ENDCHAR
STARTCHAR cyr-U
ENCODING 211
SWIDTH 541 0
DWIDTH 13 0
BBX 13 24 0 -5
BITMAP
0000
0000
0000
0000
0000
E038
E038
7070
7070
38E0
38E0
1DC0
1DC0
0F80
0780
0700
0F00
3E00
3C00
0000
0000
0000
0000
0000
ENDCHAR
STARTCHAR cyr-Ef
ENCODING 212
SWIDTH 708 0
DWIDTH 17 0
BBX 17 24 0 -5
BITMAP
000000
000000
000000
000000
000000
07F000
1FFC00
3DDE00
39CE00
71C700
71C700
71C700
71C700
71C700
39CE00
3DDE00
1FFC00
07F000
01C000
000000
000000
000000
000000
000000
ENDCHAR
STARTCHAR cyr-Kha
ENCODING 213
SWIDTH 625 0
DWIDTH 15 0
BBX 15 24 0 -5
BITMAP
0000
0000
0000
0000
0000
E00E
F01E
783C
3C78
1EF0
0FE0
07C0
07C0
0FE0
1EF0
3C78
783C
F01E
E00E
0000
0000
0000
0000
0000
ENDCHAR
STARTCHAR cyr-Tse
ENCODING 214
SWIDTH 625 0
DWIDTH 15 0
BBX 15 24 0 -5
BITMAP
0000
0000
0000
0000
0000
7038
7038
7038
7038
7038
7038
7038
7038
7038
7038
7038
7038
7FF8
7FFC
001C
001C
0000
0000
0000
ENDCHAR
STARTCHAR cyr-Che
ENCODING 215
SWIDTH 625 0
DWIDTH 15 0
BBX 15 24 0 -5
BITMAP
0000
0000
0000
0000
0000
701C
701C
701C
701C
701C
781C
3FFC
1FFC
001C
001C
001C
001C
001C
001C
0000
0000
0000
0000
0000
ENDCHAR
STARTCHAR cyr-Sha
ENCODING 216
SWIDTH 791 0
DWIDTH 19 0
BBX 19 24 0 -5
BITMAP
000000
000000
000000
000000
000000
70E1C0
70E1C0
70E1C0
70E1C0
70E1C0
70E1C0
70E1C0
70E1C0
70E1C0
70E1C0
70E1C0
70E1C0
7FFFC0
7FFFC0
000000
000000
000000
000000
000000
ENDCHAR
STARTCHAR cyr-Shcha
ENCODING 217
SWIDTH 833 0
DWIDTH 20 0
BBX 20 24 0 -5
BITMAP
000000
000000
000000
000000
000000
70E1C0
70E1C0
70E1C0
70E1C0
70E1C0
70E1C0
70E1C0
70E1C0
70E1C0
70E1C0
70E1C0
70E1C0
7FFFE0
7FFFE0
0000E0
0000E0
000000
000000
000000
ENDCHAR
STARTCHAR cyr-Ier
ENCODING 218
SWIDTH 666 0
DWIDTH 16 0
BBX 16 24 0 -5
BITMAP
0000
0000
0000
0000
0000
7C00
7C00
1C00
1C00
1C00
1FF8
1FFC
1C1E
1C0E
1C0E
1C0E
1C1E
1FFC
1FF8
0000
0000
0000
0000
0000
ENDCHAR
STARTCHAR cyr-Iery
ENCODING 219
SWIDTH 708 0
DWIDTH 17 0
BBX 17 24 0 -5
BITMAP
000000
000000
000000
000000
000000
700700
700700
700700
700700
700700
7FE700
7FF700
707F00
703F00
703F00
703F00
707F00
7FF700
7FE700
000000
000000
000000
000000
000000
ENDCHAR
STARTCHAR cyr-Ierik
ENCODING 220
SWIDTH 583 0
DWIDTH 14 0
BBX 14 24 0 -5
BITMAP
0000
0000
0000
0000
0000
7000
7000
7000
7000
7000
7FE0
7FF0
7078
7038
7038
7038
7078
7FF0
7FE0
0000
0000
0000
0000
0000
ENDCHAR
STARTCHAR cyr-E-rev
ENCODING 221
SWIDTH 583 0
DWIDTH 14 0
BBX 14 24 0 -5
BITMAP
0000
0000
0000
0000
0000
1FC0
3FE0
78F0
0078
0038
0038
07F8
07F8
0038
0038
0070
78F0
3FE0
1FC0
0000
0000
0000
0000
0000
ENDCHAR
STARTCHAR cyr-Yu
ENCODING 222
SWIDTH 708 0
DWIDTH 17 0
BBX 17 24 0 -5
BITMAP
000000
000000
000000
000000
000000
70F800
73FE00
778F00
770700
7E0380
7E0380
7E0380
7E0380
7E0380
7E0380
770700
778F00
73FE00
70F800
000000
000000
000000
000000
000000
ENDCHAR
STARTCHAR cyr-Ya
ENCODING 223
SWIDTH 583 0
DWIDTH 14 0
BBX 14 24 0 -5
BITMAP
0000
0000
0000
0000
0000
1FF8
3FF8
7838
7038
7038
7038
7838
3FF8
1FF8
03F8
07B8
0F38
1E38
3C38
7838
0000
0000
0000
0000
ENDCHAR
STARTCHAR cyr-a
ENCODING 224
SWIDTH 458 0
DWIDTH 11 0
BBX 11 24 0 -5
BITMAP
0000
0000
0000
0000
0000
0000
0000
0000
0000
1F00
3F80
7BC0
01C0
0FC0
3DC0
71C0
73C0
7FE0
3EE0
0000
0000
0000
0000
0000
ENDCHAR
STARTCHAR cyr-be
ENCODING 225
SWIDTH 500 0
DWIDTH 12 0
BBX 12 24 0 -5
BITMAP
0000
0000
0000
0000
0000
01C0
1FC0
3F80
7800
7F80
7FC0
79E0
70E0
70E0
70E0
70E0
79E0
3FC0
1F80
0000
0000
0000
0000
0000
ENDCHAR
STARTCHAR cyr-ve
ENCODING 226
SWIDTH 458 0
DWIDTH 11 0
BBX 11 24 0 -5
BITMAP
0000
0000
0000
0000
0000
0000
0000
0000
0000
7F80
7F80
71C0
71C0
7F80
7F80
71C0
71C0
7FC0
7F80
0000
0000
0000
0000
0000
ENDCHAR
STARTCHAR cyr-ghe
ENCODING 227
SWIDTH 416 0
DWIDTH 10 0
BBX 10 24 0 -5
BITMAP
0000
0000
0000
0000
0000
0000
0000
0000
0000
7FC0
7FC0
7000
7000
7000
7000
7000
7000
7000
7000
0000
0000
0000
0000
0000
ENDCHAR
STARTCHAR cyr-de
ENCODING 228
SWIDTH 583 0
DWIDTH 14 0
BBX 14 24 0 -5
BITMAP
0000
0000
0000
0000
0000
0000
0000
0000
0000
0FF0
0FF0
0E70
0E70
0E70
0E70
0E70
1C70
7FFC
7FFC
701C
701C
0000
0000
0000
ENDCHAR
STARTCHAR cyr-ie
ENCODING 229
SWIDTH 500 0
DWIDTH 12 0
BBX 12 24 0 -5
BITMAP
0000
0000
0000
0000
0000
0000
0000
0000
0000
0F00
3FC0
39C0
70E0
7FE0
7FE0
7000
38E0
3FC0
0F00
0000
0000
0000
0000
0000
ENDCHAR
STARTCHAR cyr-zhe
ENCODING 230
SWIDTH 708 0
DWIDTH 17 0
BBX 17 24 0 -5
BITMAP
000000
000000
000000
000000
000000
000000
000000
000000
000000
F1C780
79CF00
3DDE00
1FFC00
0FF800
0FF800
1FFC00
3DDE00
79CF00
F1C780
E1C380
000000
000000
000000
000000
ENDCHAR
STARTCHAR cyr-z
ENCODING 231
SWIDTH 458 0
DWIDTH 11 0
BBX 11 24 0 -5
BITMAP
0000
0000
0000
0000
0000
0000
0000
0000
0000
3F80
7FC0
71C0
01C0
0F80
0FC0
01C0
71C0
7FC0
3F80
0000
0000
0000
0000
0000
ENDCHAR
STARTCHAR cyr-i
ENCODING 232
SWIDTH 500 0
DWIDTH 12 0
BBX 12 24 0 -5
BITMAP
0000
0000
0000
0000
0000
0000
0000
0000
0000
70E0
70E0
71E0
73E0
77E0
7EE0
7CE0
78E0
70E0
70E0
0000
0000
0000
0000
0000
ENDCHAR
STARTCHAR cyr-i-short
ENCODING 233
SWIDTH 500 0
DWIDTH 12 0
BBX 12 24 0 -5
BITMAP
0000
0000
0000
0000
0000
0000
0000
1F80
0F00
70E0
70E0
71E0
73E0
77E0
7EE0
7CE0
78E0
70E0
70E0
0000
0000
0000
0000
0000
ENDCHAR
STARTCHAR cyr-ka
ENCODING 234
SWIDTH 416 0
DWIDTH 10 0
BBX 10 24 0 -5
BITMAP
0000
0000
0000
0000
0000
0000
0000
0000
0000
71C0
7380
7700
7E00
7C00
7E00
7700
7380
71C0
70C0
0000
0000
0000
0000
0000
ENDCHAR
STARTCHAR cyr-el
ENCODING 235
SWIDTH 500 0
DWIDTH 12 0
BBX 12 24 0 -5
BITMAP
0000
0000
0000
0000
0000
0000
0000
0000
0000
1FE0
1FE0
1CE0
1CE0
1CE0
1CE0
1CE0
1CE0
3CE0
78E0
0000
0000
0000
0000
0000
ENDCHAR
STARTCHAR cyr-em
ENCODING 236
SWIDTH 625 0
DWIDTH 15 0
BBX 15 24 0 -5
BITMAP
0000
0000
0000
0000
0000
0000
0000
0000
0000
701C
783C
7C7C
7EFC
77DC
739C
701C
701C
701C
701C
0000
0000
0000
0000
0000
ENDCHAR
STARTCHAR cyr-en
ENCODING 237
SWIDTH 500 0
DWIDTH 12 0
BBX 12 24 0 -5
BITMAP
0000
0000
0000
0000
0000
0000
0000
0000
0000
70E0
70E0
70E0
70E0
7FE0
7FE0
70E0
70E0
70E0
70E0
0000
0000
0000
0000
0000
ENDCHAR
STARTCHAR cyr-o
ENCODING 238
SWIDTH 500 0
DWIDTH 12 0
BBX 12 24 0 -5
BITMAP
0000
0000
0000
0000
0000
0000
0000
0000
0000
0F00
3FC0
39C0
70E0
70E0
70E0
70E0
39C0
3FC0
0F00
0000
0000
0000
0000
0000
ENDCHAR
STARTCHAR cyr-pe
ENCODING 239
SWIDTH 500 0
DWIDTH 12 0
BBX 12 24 0 -5
BITMAP
0000
0000
0000
0000
0000
0000
0000
0000
0000
7FE0
7FE0
70E0
70E0
70E0
70E0
70E0
70E0
70E0
70E0
0000
0000
0000
0000
0000
ENDCHAR
STARTCHAR cyr-er
ENCODING 240
SWIDTH 500 0
DWIDTH 12 0
BBX 12 24 0 -5
BITMAP
0000
0000
0000
0000
0000
0000
0000
0000
0000
7F00
7FC0
79C0
70E0
70E0
70E0
70E0
79C0
7FC0
7F00
7000
7000
7000
7000
0000
ENDCHAR
STARTCHAR cyr-es
ENCODING 241
SWIDTH 458 0
DWIDTH 11 0
BBX 11 24 0 -5
BITMAP
0000
0000
0000
0000
0000
0000
0000
0000
0000
0F00
3FC0
39C0
70E0
7000
7000
70E0
39C0
3FC0
0F00
0000
0000
0000
0000
0000
ENDCHAR
STARTCHAR cyr-te
ENCODING 242
SWIDTH 541 0
DWIDTH 13 0
BBX 13 24 0 -5
BITMAP
0000
0000
0000
0000
0000
0000
0000
0000
0000
7FF0
7FF0
0700
0700
0700
0700
0700
0700
0700
0700
0700
0000
0000
0000
0000
ENDCHAR
STARTCHAR cyr-u
ENCODING 243
SWIDTH 416 0
DWIDTH 10 0
BBX 10 24 0 -5
BITMAP
0000
0000
0000
0000
0000
0000
0000
0000
0000
E1C0
E1C0
E1C0
7380
7380
3F00
3F00
3F00
1E00
1E00
1C00
1C00
7C00
7800
0000
ENDCHAR
STARTCHAR cyr-ef
ENCODING 244
SWIDTH 625 0
DWIDTH 15 0
BBX 15 24 0 -5
BITMAP
0000
0000
0000
0000
0000
0000
0000
0000
0380
0FE0
3FF8
3BB8
739C
739C
739C
739C
3BB8
3FF8
0FE0
0380
0380
0380
0380
0380
ENDCHAR
STARTCHAR cyr-kha
ENCODING 245
SWIDTH 458 0
DWIDTH 11 0
BBX 11 24 0 -5
BITMAP
0000
0000
0000
0000
0000
0000
0000
0000
0000
E0E0
F1E0
7BC0
3F80
1F00
1F00
3F80
7BC0
F1E0
E0E0
0000
0000
0000
0000
0000
ENDCHAR
STARTCHAR cyr-tse
ENCODING 246
SWIDTH 541 0
DWIDTH 13 0
BBX 13 24 0 -5
BITMAP
0000
0000
0000
0000
0000
0000
0000
0000
0000
70E0
70E0
70E0
70E0
70E0
70E0
70E0
70E0
7FF0
7FF0
0070
0070
0000
0000
0000
ENDCHAR
STARTCHAR cyr-che
ENCODING 247
SWIDTH 500 0
DWIDTH 12 0
BBX 12 24 0 -5
BITMAP
0000
0000
0000
0000
0000
0000
0000
0000
0000
70E0
70E0
70E0
70E0
7FE0
3FE0
00E0
00E0
00E0
00E0
0000
0000
0000
0000
0000
ENDCHAR
STARTCHAR cyr-sha
ENCODING 248
SWIDTH 625 0
DWIDTH 15 0
BBX 15 24 0 -5
BITMAP
0000
0000
0000
0000
0000
0000
0000
0000
0000
739C
739C
739C
739C
739C
739C
739C
739C
7FFC
7FFC
0000
0000
0000
0000
0000
ENDCHAR
STARTCHAR cyr-shcha
ENCODING 249
SWIDTH 666 0
DWIDTH 16 0
BBX 16 24 0 -5
BITMAP
0000
0000
0000
0000
0000
0000
0000
0000
0000
739C
739C
739C
739C
739C
739C
739C
739C
7FFE
7FFE
000E
000E
0000
0000
0000
ENDCHAR
STARTCHAR cyr-ier
ENCODING 250
SWIDTH 583 0
DWIDTH 14 0
BBX 14 24 0 -5
BITMAP
0000
0000
0000
0000
0000
0000
0000
0000
0000
7C00
7C00
1C00
1FF0
1FF8
1C38
1C38
1C38
1FF8
1FF0
0000
0000
0000
0000
0000
ENDCHAR
STARTCHAR cyr-iery
ENCODING 251
SWIDTH 625 0
DWIDTH 15 0
BBX 15 24 0 -5
BITMAP
0000
0000
0000
0000
0000
0000
0000
0000
0000
701C
701C
701C
7FDC
7FFC
70FC
70FC
70FC
7FFC
7FDC
0000
0000
0000
0000
0000
ENDCHAR
STARTCHAR cyr-ierik
ENCODING 252
SWIDTH 500 0
DWIDTH 12 0
BBX 12 24 0 -5
BITMAP
0000
0000
0000
0000
0000
0000
0000
0000
0000
7000
7000
7000
7FC0
7FE0
70E0
70E0
70E0
7FE0
7FC0
0000
0000
0000
0000
0000
ENDCHAR
STARTCHAR cyr-e-rev
ENCODING 253
SWIDTH 458 0
DWIDTH 11 0
BBX 11 24 0 -5
BITMAP
0000
0000
0000
0000
0000
0000
0000
0000
0000
1F00
3F80
73C0
01C0
0FC0
0FC0
01C0
73C0
3F80
1F00
0000
0000
0000
0000
0000
ENDCHAR
STARTCHAR cyr-yu
ENCODING 254
SWIDTH 625 0
DWIDTH 15 0
BBX 15 24 0 -5
BITMAP
0000
0000
0000
0000
0000
0000
0000
0000
0000
71E0
77F8
7738
7E1C
7E1C
7E1C
7E1C
7738
77F8
71E0
0000
0000
0000
0000
0000
ENDCHAR
STARTCHAR cyr-ya
ENCODING 255
SWIDTH 500 0
DWIDTH 12 0
BBX 12 24 0 -5
BITMAP
0000
0000
0000
0000
0000
0000
0000
0000
0000
3FE0
7FE0
70E0
70E0
70E0
7FE0
3FE0
1EE0
3CE0
78E0
0000
0000
0000
0000
0000
ENDCHAR
ENDFONT
